<svg xmlns="http://www.w3.org/2000/svg" width="24" height="25" viewBox="0 0 24 25" fill="none">
    <path d="M3.35625 12.2081L10.1063 5.45808C10.158 5.40637 10.2193 5.36535 10.2869 5.33737C10.3545 5.30939 10.4269 5.29498 10.5 5.29498C10.5731 5.29498 10.6455 5.30939 10.7131 5.33737C10.7807 5.36535 10.842 5.40637 10.8938 5.45808C10.9455 5.50979 10.9865 5.57117 11.0145 5.63873C11.0424 5.70629 11.0568 5.7787 11.0568 5.85183C11.0568 5.92495 11.0424 5.99737 11.0145 6.06493C10.9865 6.13248 10.9455 6.19387 10.8938 6.24558L5.10938 12.0393L20.25 12.0393C20.3992 12.0393 20.5423 12.0986 20.6477 12.2041C20.7532 12.3096 20.8125 12.4526 20.8125 12.6018C20.8125 12.751 20.7532 12.8941 20.6477 12.9996C20.5423 13.1051 20.3992 13.1643 20.25 13.1643L5.10938 13.1643L10.8937 18.9581C10.9982 19.0625 11.0568 19.2041 11.0568 19.3518C11.0568 19.4995 10.9982 19.6411 10.8937 19.7456C10.7893 19.85 10.6477 19.9087 10.5 19.9087C10.3523 19.9087 10.2107 19.85 10.1063 19.7456L3.35625 12.9956C3.30293 12.9448 3.26047 12.8837 3.23147 12.816C3.20246 12.7483 3.1875 12.6755 3.1875 12.6018C3.1875 12.5282 3.20246 12.4553 3.23147 12.3876C3.26047 12.32 3.30293 12.2589 3.35625 12.2081Z" fill="#8494A1"/>
</svg>